<?xml version="1.0" encoding="UTF-8"?>
<svg width="13px" height="13px" viewBox="0 0 13 13" version="1.1" xmlns="http://www.w3.org/2000/svg" xmlns:xlink="http://www.w3.org/1999/xlink">
    <!-- Generator: Sketch 39 (31667) - http://www.bohemiancoding.com/sketch -->
    <title>Combined Shape</title>
    <desc>Created with Sketch.</desc>
    <defs></defs>
    <g id="Page-1" stroke="none" stroke-width="1" fill="none" fill-rule="evenodd">
        <g id="Desktop-Copy" transform="translate(-1109.000000, -83.000000)" fill="#778287">
            <g id="Group-Copy" transform="translate(1106.000000, 80.000000)">
                <path d="M11.7416002,8.05738967 L11.7416002,4.74414682 C11.7416002,3.73333245 10.9168616,2.89949494 9.89949494,2.89949494 C8.8750354,2.89949494 8.05738967,3.72537372 8.05738967,4.74414682 L8.05738967,8.05738967 L3.26676482,8.05738967 C3.06401005,8.05738967 2.89949494,8.22157824 2.89949494,8.42411509 L2.89949494,11.3748748 C2.89949494,11.57614 3.06392726,11.7416002 3.26676482,11.7416002 L8.05738967,11.7416002 L8.05738967,15.0548431 C8.05738967,16.0656574 8.88212829,16.8994949 9.89949494,16.8994949 C10.9239545,16.8994949 11.7416002,16.0736162 11.7416002,15.0548431 L11.7416002,11.7416002 L16.5322251,11.7416002 C16.7349798,11.7416002 16.8994949,11.5774116 16.8994949,11.3748748 L16.8994949,8.42411509 C16.8994949,8.22284985 16.7350626,8.05738967 16.5322251,8.05738967 L11.7416002,8.05738967 Z" id="Combined-Shape" transform="translate(9.899495, 9.899495) rotate(-315.000000) translate(-9.899495, -9.899495) "></path>
            </g>
        </g>
    </g>
</svg>