<?xml version="1.0" encoding="UTF-8"?>
<svg width="10px" height="13px" viewBox="0 0 10 13" version="1.1" xmlns="http://www.w3.org/2000/svg" xmlns:xlink="http://www.w3.org/1999/xlink">
    <!-- Generator: Sketch 39 (31667) - http://www.bohemiancoding.com/sketch -->
    <title>Shape</title>
    <desc>Created with Sketch.</desc>
    <defs></defs>
    <g id="Page-1" stroke="none" stroke-width="1" fill="none" fill-rule="evenodd">
        <path d="M5.39132361,0 L5.39132361,0 C2.90170539,0 0.891323608,2.01038178 0.891323608,4.5 C0.891323608,5.3680509 1.16861765,6.19691896 1.55441805,6.87806765 L4.48710392,11.953724 C4.67096192,12.2852713 5.04169199,12.4510449 5.39132361,12.4510449 C5.74098536,12.4510449 6.0936009,12.2852713 6.2955433,11.953724 L9.22822917,6.88108171 C9.61704364,6.19987274 9.89132361,5.38607502 9.89132361,4.50295378 C9.89132361,2.01339585 7.88094183,0 5.39132361,0 L5.39132361,0 Z M5.39132361,5.82920295 C4.48710392,5.82920295 3.74865783,5.09075687 3.74865783,4.18653717 C3.74865783,3.28231748 4.48710392,2.5438714 5.39132361,2.5438714 C6.2955433,2.5438714 7.03398938,3.28231748 7.03398938,4.18653717 C7.03398938,5.09377093 6.2955433,5.82920295 5.39132361,5.82920295 L5.39132361,5.82920295 Z" id="Shape" fill="#778287"></path>
    </g>
</svg>