<?xml version="1.0" encoding="UTF-8"?>
<svg width="26px" height="149px" viewBox="0 0 26 149" version="1.1" xmlns="http://www.w3.org/2000/svg" xmlns:xlink="http://www.w3.org/1999/xlink">
    <!-- Generator: Sketch 39 (31667) - http://www.bohemiancoding.com/sketch -->
    <title>local copy</title>
    <desc>Created with Sketch.</desc>
    <defs></defs>
    <g id="Page-1" stroke="none" stroke-width="1" fill="none" fill-rule="evenodd">
        <g id="local-copy">
            <g id="Group-2" transform="translate(12.000000, 59.000000) rotate(-270.000000) translate(-12.000000, -59.000000) translate(-18.000000, 57.000000)" fill="#000000">
                <path d="M26.1069658,2.6225344 C26.399203,2.6225344 26.6792636,2.50076891 26.8862649,2.29376758 C27.0932662,2.08676625 27.2150317,1.80670563 27.2150317,1.51446846 C27.2150317,1.22223129 27.0932662,0.942170662 26.8862649,0.735169332 C26.6792636,0.528168001 26.399203,0.406402513 26.1069658,0.406402513 C25.8147286,0.406402513 25.534668,0.528168001 25.3276667,0.735169332 C25.1206653,0.942170662 24.9988998,1.22223129 24.9988998,1.51446846 C24.9988998,1.80670563 25.1206653,2.08676625 25.3276667,2.29376758 C25.534668,2.51294546 25.8147286,2.6225344 26.1069658,2.6225344 L26.1069658,2.6225344 Z" id="Shape" transform="translate(26.106966, 1.514468) rotate(151.000000) translate(-26.106966, -1.514468) "></path>
                <path d="M54.8862649,2.29376758 C55.0932662,2.08676625 55.2150317,1.80670563 55.2150317,1.51446846 C55.2150317,1.22223129 55.0932662,0.942170662 54.8862649,0.735169332 C54.6792636,0.528168001 54.399203,0.406402513 54.1069658,0.406402513 C53.8147286,0.406402513 53.534668,0.528168001 53.3276667,0.735169332 C53.1206653,0.942170662 52.9988998,1.22223129 52.9988998,1.51446846 C52.9988998,1.80670563 53.1206653,2.08676625 53.3276667,2.29376758 C53.534668,2.51294546 53.8147286,2.6225344 54.1069658,2.6225344 C54.399203,2.6225344 54.6792636,2.50076891 54.8862649,2.29376758 Z" id="Shape-Copy" transform="translate(54.106966, 1.514468) rotate(151.000000) translate(-54.106966, -1.514468) "></path>
                <path d="M4.99889984,1.51446846 C4.99889984,2.1232959 5.48596179,2.6225344 6.10696579,2.6225344 C6.71579323,2.6225344 7.21503173,2.1232959 7.21503173,1.51446846 C7.21503173,0.905641015 6.71579323,0.406402513 6.10696579,0.406402513 C5.49813834,0.406402513 4.99889984,0.905641015 4.99889984,1.51446846 L4.99889984,1.51446846 Z" id="Shape" transform="translate(6.106966, 1.514468) rotate(151.000000) translate(-6.106966, -1.514468) "></path>
                <path d="M32.9988998,1.51446846 C32.9988998,2.1232959 33.4859618,2.6225344 34.1069658,2.6225344 C34.7157932,2.6225344 35.2150317,2.1232959 35.2150317,1.51446846 C35.2150317,0.905641015 34.7157932,0.406402513 34.1069658,0.406402513 C33.4981383,0.406402513 32.9988998,0.905641015 32.9988998,1.51446846 L32.9988998,1.51446846 Z" id="Shape-Copy-2" transform="translate(34.106966, 1.514468) rotate(151.000000) translate(-34.106966, -1.514468) "></path>
                <path d="M16.9988998,1.51446846 C16.9988998,2.1232959 17.4859618,2.6225344 18.1069658,2.6225344 C18.7157932,2.6225344 19.2150317,2.1232959 19.2150317,1.51446846 C19.2150317,0.905641015 18.7157932,0.406402513 18.1069658,0.406402513 C17.4981383,0.406402513 16.9988998,0.905641015 16.9988998,1.51446846 L16.9988998,1.51446846 Z" id="Shape" transform="translate(18.106966, 1.514468) rotate(151.000000) translate(-18.106966, -1.514468) "></path>
                <path d="M44.9988998,1.51446846 C44.9988998,2.1232959 45.4859618,2.6225344 46.1069658,2.6225344 C46.7157932,2.6225344 47.2150317,2.1232959 47.2150317,1.51446846 C47.2150317,0.905641015 46.7157932,0.406402513 46.1069658,0.406402513 C45.4981383,0.406402513 44.9988998,0.905641015 44.9988998,1.51446846 L44.9988998,1.51446846 Z" id="Shape-Copy-3" transform="translate(46.106966, 1.514468) rotate(151.000000) translate(-46.106966, -1.514468) "></path>
                <path d="M20.9988998,1.51446846 C20.9988998,2.1232959 21.4859618,2.6225344 22.1069658,2.6225344 C22.7157932,2.6225344 23.2150317,2.1232959 23.2150317,1.51446846 C23.2150317,0.905641015 22.7157932,0.406402513 22.1069658,0.406402513 C21.4859618,0.406402513 20.9988998,0.905641015 20.9988998,1.51446846 L20.9988998,1.51446846 Z" id="Shape" transform="translate(22.106966, 1.514468) rotate(151.000000) translate(-22.106966, -1.514468) "></path>
                <path d="M48.9988998,1.51446846 C48.9988998,2.1232959 49.4859618,2.6225344 50.1069658,2.6225344 C50.7157932,2.6225344 51.2150317,2.1232959 51.2150317,1.51446846 C51.2150317,0.905641015 50.7157932,0.406402513 50.1069658,0.406402513 C49.4859618,0.406402513 48.9988998,0.905641015 48.9988998,1.51446846 L48.9988998,1.51446846 Z" id="Shape-Copy-4" transform="translate(50.106966, 1.514468) rotate(151.000000) translate(-50.106966, -1.514468) "></path>
                <path d="M12.9988998,1.51446846 C12.9988998,2.1232959 13.4981383,2.6225344 14.1069658,2.6225344 C14.7157932,2.6225344 15.2150317,2.1232959 15.2150317,1.51446846 C15.2150317,0.905641015 14.7279698,0.406402513 14.1069658,0.406402513 C13.4981383,0.406402513 12.9988998,0.905641015 12.9988998,1.51446846 L12.9988998,1.51446846 Z" id="Shape" transform="translate(14.106966, 1.514468) rotate(151.000000) translate(-14.106966, -1.514468) "></path>
                <path d="M42.1069658,2.6225344 C42.7157932,2.6225344 43.2150317,2.1232959 43.2150317,1.51446846 C43.2150317,0.905641015 42.7279698,0.406402513 42.1069658,0.406402513 C41.4981383,0.406402513 40.9988998,0.905641015 40.9988998,1.51446846 C40.9988998,2.1232959 41.4981383,2.6225344 42.1069658,2.6225344 Z" id="Shape-Copy-5" transform="translate(42.106966, 1.514468) rotate(151.000000) translate(-42.106966, -1.514468) "></path>
                <path d="M10.1069658,2.6225344 C10.7157932,2.6225344 11.2028552,2.1232959 11.2028552,1.51446846 C11.2028552,0.905641015 10.7157932,0.406402513 10.1069658,0.406402513 C9.49813834,0.406402513 8.99889984,0.905641015 8.99889984,1.51446846 C8.99889984,2.1232959 9.48596179,2.6225344 10.1069658,2.6225344 Z" id="Shape" transform="translate(10.100878, 1.514468) rotate(151.000000) translate(-10.100878, -1.514468) "></path>
                <path d="M36.9988998,1.51446846 C36.9988998,2.1232959 37.4859618,2.6225344 38.1069658,2.6225344 C38.7157932,2.6225344 39.2028552,2.1232959 39.2028552,1.51446846 C39.2028552,0.905641015 38.7157932,0.406402513 38.1069658,0.406402513 C37.4981383,0.406402513 36.9988998,0.905641015 36.9988998,1.51446846 L36.9988998,1.51446846 Z" id="Shape-Copy-6" transform="translate(38.100878, 1.514468) rotate(151.000000) translate(-38.100878, -1.514468) "></path>
                <path d="M1.0025058,1.59304058 C1.05121199,2.16533837 1.53827395,2.60369413 2.09839519,2.60369413 L2.19580758,2.60369413 C2.80463502,2.55498793 3.25516733,2.01921979 3.19428459,1.41039234 C3.14557839,0.801564902 2.60981024,0.351032595 2.0009828,0.411915339 L2.0009828,0.411915339 C1.40433191,0.448444986 0.953799601,0.984213135 1.0025058,1.59304058 L1.0025058,1.59304058 Z" id="Shape" transform="translate(2.099349, 1.505048) rotate(151.000000) translate(-2.099349, -1.505048) "></path>
                <path d="M29.0025058,1.59304058 C29.051212,2.16533837 29.5382739,2.60369413 30.0983952,2.60369413 L30.1958076,2.60369413 C30.804635,2.55498793 31.2551673,2.01921979 31.1942846,1.41039234 C31.1455784,0.801564902 30.6098102,0.351032595 30.0009828,0.411915339 L30.0009828,0.411915339 C29.4043319,0.448444986 28.9537996,0.984213135 29.0025058,1.59304058 L29.0025058,1.59304058 Z" id="Shape-Copy-7" transform="translate(30.099349, 1.505048) rotate(151.000000) translate(-30.099349, -1.505048) "></path>
                <path d="M58.8906402,2.29376758 C59.0976415,2.08676625 59.219407,1.80670563 59.219407,1.51446846 C59.219407,1.22223129 59.0976415,0.942170662 58.8906402,0.735169332 C58.6836389,0.528168001 58.4035782,0.406402513 58.1113411,0.406402513 C57.8191039,0.406402513 57.5390433,0.528168001 57.3320419,0.735169332 C57.1250406,0.942170662 57.0032751,1.22223129 57.0032751,1.51446846 C57.0032751,1.80670563 57.1250406,2.08676625 57.3320419,2.29376758 C57.5390433,2.51294546 57.8191039,2.6225344 58.1113411,2.6225344 C58.4035782,2.6225344 58.6836389,2.50076891 58.8906402,2.29376758 Z" id="Shape-Copy" transform="translate(58.111341, 1.514468) rotate(-370.000000) translate(-58.111341, -1.514468) "></path>
            </g>
            <g id="Group-3" transform="translate(13.268532, 15.724521) rotate(-90.000000) translate(-13.268532, -15.724521) translate(-2.231468, 2.724521)">
                <polygon id="XMLID_1304_" fill="#778287" points="29.3074152 12.4581325 1.15523431 1 4.9664941 12.4581325 1.14305776 23.9040884"></polygon>
                <path d="M30.4106337,12.6431465 C30.4106337,12.5700872 30.3984572,12.5092045 30.3862806,12.4483217 C30.3862806,12.4239686 30.3741041,12.4117921 30.3741041,12.387439 C30.3619275,12.3387328 30.349751,12.3022031 30.3375744,12.2534969 C30.3253979,12.2291438 30.3253979,12.2169673 30.3132213,12.1926142 C30.2888682,12.1317314 30.2645152,12.0830252 30.2279855,12.0221425 C30.2279855,12.0221425 30.2279855,12.0221425 30.215809,12.009966 C30.1792793,11.9612598 30.1427497,11.9125536 30.10622,11.8760239 C30.0940435,11.8638474 30.0818669,11.8516708 30.0696904,11.8394943 C30.0331607,11.8029646 29.9966311,11.7786115 29.9601014,11.7542584 C29.9479249,11.7420819 29.9235718,11.7299053 29.9113952,11.7177288 C29.8748656,11.6933757 29.8261594,11.6690226 29.7774532,11.6446695 C29.7652766,11.6324929 29.7531001,11.6324929 29.7409236,11.6203164 L29.7409236,11.6203164 L1.58874264,0.174360488 C1.18691653,0.0160653528 0.736384224,0.101301195 0.419793954,0.393538367 C0.103203685,0.685775539 -0.00638525489,1.13630785 0.127556782,1.55031051 L3.81705108,12.655323 L0.103203685,23.7603356 C-0.0307383526,24.1743382 0.078850587,24.6248705 0.395440857,24.9171077 C0.602442187,25.1119325 0.870326261,25.2215214 1.15038688,25.2215214 C1.28432892,25.2215214 1.43044751,25.1971683 1.56438954,25.1362856 L29.7409236,13.6903297 L29.7531001,13.6903297 C29.7652766,13.6903297 29.7774532,13.6781531 29.7896297,13.6659766 C29.8383359,13.6416235 29.8870421,13.6172704 29.9235718,13.5929173 C29.9357483,13.5807408 29.9601014,13.5685642 29.972278,13.5563877 C30.0088076,13.5320346 30.0453373,13.4955049 30.0818669,13.4711518 C30.0940435,13.4589753 30.10622,13.4467987 30.1183966,13.4346222 C30.1671028,13.385916 30.2036324,13.3372098 30.2401621,13.2885036 L30.2401621,13.2885036 C30.2766917,13.2397974 30.3010448,13.1789146 30.3253979,13.1180319 C30.3375744,13.0936788 30.3375744,13.0815023 30.349751,13.0571492 C30.3619275,13.008443 30.3741041,12.9719133 30.3862806,12.9232071 C30.3862806,12.898854 30.3984572,12.8866775 30.3984572,12.8623244 C30.3984572,12.7770885 30.4106337,12.7040292 30.4106337,12.6431465 L30.4106337,12.6431465 L30.4106337,12.6431465 L30.4106337,12.6431465 L30.4106337,12.6431465 Z M2.95251611,3.10890876 L23.6648257,11.5350806 L5.75312234,11.5350806 L2.95251611,3.10890876 L2.95251611,3.10890876 Z M5.75312234,13.7390359 L23.6526491,13.7390359 L2.94033956,22.1652077 L5.75312234,13.7390359 L5.75312234,13.7390359 Z" id="Shape" fill="#000000"></path>
            </g>
            <g id="Group-2" transform="translate(12.000000, 119.000000) rotate(-270.000000) translate(-12.000000, -119.000000) translate(-18.000000, 117.000000)" fill="#000000">
                <path d="M26.1069658,2.6225344 C26.399203,2.6225344 26.6792636,2.50076891 26.8862649,2.29376758 C27.0932662,2.08676625 27.2150317,1.80670563 27.2150317,1.51446846 C27.2150317,1.22223129 27.0932662,0.942170662 26.8862649,0.735169332 C26.6792636,0.528168001 26.399203,0.406402513 26.1069658,0.406402513 C25.8147286,0.406402513 25.534668,0.528168001 25.3276667,0.735169332 C25.1206653,0.942170662 24.9988998,1.22223129 24.9988998,1.51446846 C24.9988998,1.80670563 25.1206653,2.08676625 25.3276667,2.29376758 C25.534668,2.51294546 25.8147286,2.6225344 26.1069658,2.6225344 L26.1069658,2.6225344 Z" id="Shape" transform="translate(26.106966, 1.514468) rotate(151.000000) translate(-26.106966, -1.514468) "></path>
                <path d="M54.8862649,2.29376758 C55.0932662,2.08676625 55.2150317,1.80670563 55.2150317,1.51446846 C55.2150317,1.22223129 55.0932662,0.942170662 54.8862649,0.735169332 C54.6792636,0.528168001 54.399203,0.406402513 54.1069658,0.406402513 C53.8147286,0.406402513 53.534668,0.528168001 53.3276667,0.735169332 C53.1206653,0.942170662 52.9988998,1.22223129 52.9988998,1.51446846 C52.9988998,1.80670563 53.1206653,2.08676625 53.3276667,2.29376758 C53.534668,2.51294546 53.8147286,2.6225344 54.1069658,2.6225344 C54.399203,2.6225344 54.6792636,2.50076891 54.8862649,2.29376758 Z" id="Shape-Copy" transform="translate(54.106966, 1.514468) rotate(151.000000) translate(-54.106966, -1.514468) "></path>
                <path d="M4.99889984,1.51446846 C4.99889984,2.1232959 5.48596179,2.6225344 6.10696579,2.6225344 C6.71579323,2.6225344 7.21503173,2.1232959 7.21503173,1.51446846 C7.21503173,0.905641015 6.71579323,0.406402513 6.10696579,0.406402513 C5.49813834,0.406402513 4.99889984,0.905641015 4.99889984,1.51446846 L4.99889984,1.51446846 Z" id="Shape" transform="translate(6.106966, 1.514468) rotate(151.000000) translate(-6.106966, -1.514468) "></path>
                <path d="M32.9988998,1.51446846 C32.9988998,2.1232959 33.4859618,2.6225344 34.1069658,2.6225344 C34.7157932,2.6225344 35.2150317,2.1232959 35.2150317,1.51446846 C35.2150317,0.905641015 34.7157932,0.406402513 34.1069658,0.406402513 C33.4981383,0.406402513 32.9988998,0.905641015 32.9988998,1.51446846 L32.9988998,1.51446846 Z" id="Shape-Copy-2" transform="translate(34.106966, 1.514468) rotate(151.000000) translate(-34.106966, -1.514468) "></path>
                <path d="M16.9988998,1.51446846 C16.9988998,2.1232959 17.4859618,2.6225344 18.1069658,2.6225344 C18.7157932,2.6225344 19.2150317,2.1232959 19.2150317,1.51446846 C19.2150317,0.905641015 18.7157932,0.406402513 18.1069658,0.406402513 C17.4981383,0.406402513 16.9988998,0.905641015 16.9988998,1.51446846 L16.9988998,1.51446846 Z" id="Shape" transform="translate(18.106966, 1.514468) rotate(151.000000) translate(-18.106966, -1.514468) "></path>
                <path d="M44.9988998,1.51446846 C44.9988998,2.1232959 45.4859618,2.6225344 46.1069658,2.6225344 C46.7157932,2.6225344 47.2150317,2.1232959 47.2150317,1.51446846 C47.2150317,0.905641015 46.7157932,0.406402513 46.1069658,0.406402513 C45.4981383,0.406402513 44.9988998,0.905641015 44.9988998,1.51446846 L44.9988998,1.51446846 Z" id="Shape-Copy-3" transform="translate(46.106966, 1.514468) rotate(151.000000) translate(-46.106966, -1.514468) "></path>
                <path d="M20.9988998,1.51446846 C20.9988998,2.1232959 21.4859618,2.6225344 22.1069658,2.6225344 C22.7157932,2.6225344 23.2150317,2.1232959 23.2150317,1.51446846 C23.2150317,0.905641015 22.7157932,0.406402513 22.1069658,0.406402513 C21.4859618,0.406402513 20.9988998,0.905641015 20.9988998,1.51446846 L20.9988998,1.51446846 Z" id="Shape" transform="translate(22.106966, 1.514468) rotate(151.000000) translate(-22.106966, -1.514468) "></path>
                <path d="M48.9988998,1.51446846 C48.9988998,2.1232959 49.4859618,2.6225344 50.1069658,2.6225344 C50.7157932,2.6225344 51.2150317,2.1232959 51.2150317,1.51446846 C51.2150317,0.905641015 50.7157932,0.406402513 50.1069658,0.406402513 C49.4859618,0.406402513 48.9988998,0.905641015 48.9988998,1.51446846 L48.9988998,1.51446846 Z" id="Shape-Copy-4" transform="translate(50.106966, 1.514468) rotate(151.000000) translate(-50.106966, -1.514468) "></path>
                <path d="M12.9988998,1.51446846 C12.9988998,2.1232959 13.4981383,2.6225344 14.1069658,2.6225344 C14.7157932,2.6225344 15.2150317,2.1232959 15.2150317,1.51446846 C15.2150317,0.905641015 14.7279698,0.406402513 14.1069658,0.406402513 C13.4981383,0.406402513 12.9988998,0.905641015 12.9988998,1.51446846 L12.9988998,1.51446846 Z" id="Shape" transform="translate(14.106966, 1.514468) rotate(151.000000) translate(-14.106966, -1.514468) "></path>
                <path d="M42.1069658,2.6225344 C42.7157932,2.6225344 43.2150317,2.1232959 43.2150317,1.51446846 C43.2150317,0.905641015 42.7279698,0.406402513 42.1069658,0.406402513 C41.4981383,0.406402513 40.9988998,0.905641015 40.9988998,1.51446846 C40.9988998,2.1232959 41.4981383,2.6225344 42.1069658,2.6225344 Z" id="Shape-Copy-5" transform="translate(42.106966, 1.514468) rotate(151.000000) translate(-42.106966, -1.514468) "></path>
                <path d="M10.1069658,2.6225344 C10.7157932,2.6225344 11.2028552,2.1232959 11.2028552,1.51446846 C11.2028552,0.905641015 10.7157932,0.406402513 10.1069658,0.406402513 C9.49813834,0.406402513 8.99889984,0.905641015 8.99889984,1.51446846 C8.99889984,2.1232959 9.48596179,2.6225344 10.1069658,2.6225344 Z" id="Shape" transform="translate(10.100878, 1.514468) rotate(151.000000) translate(-10.100878, -1.514468) "></path>
                <path d="M36.9988998,1.51446846 C36.9988998,2.1232959 37.4859618,2.6225344 38.1069658,2.6225344 C38.7157932,2.6225344 39.2028552,2.1232959 39.2028552,1.51446846 C39.2028552,0.905641015 38.7157932,0.406402513 38.1069658,0.406402513 C37.4981383,0.406402513 36.9988998,0.905641015 36.9988998,1.51446846 L36.9988998,1.51446846 Z" id="Shape-Copy-6" transform="translate(38.100878, 1.514468) rotate(151.000000) translate(-38.100878, -1.514468) "></path>
                <path d="M1.0025058,1.59304058 C1.05121199,2.16533837 1.53827395,2.60369413 2.09839519,2.60369413 L2.19580758,2.60369413 C2.80463502,2.55498793 3.25516733,2.01921979 3.19428459,1.41039234 C3.14557839,0.801564902 2.60981024,0.351032595 2.0009828,0.411915339 L2.0009828,0.411915339 C1.40433191,0.448444986 0.953799601,0.984213135 1.0025058,1.59304058 L1.0025058,1.59304058 Z" id="Shape" transform="translate(2.099349, 1.505048) rotate(151.000000) translate(-2.099349, -1.505048) "></path>
                <path d="M29.0025058,1.59304058 C29.051212,2.16533837 29.5382739,2.60369413 30.0983952,2.60369413 L30.1958076,2.60369413 C30.804635,2.55498793 31.2551673,2.01921979 31.1942846,1.41039234 C31.1455784,0.801564902 30.6098102,0.351032595 30.0009828,0.411915339 L30.0009828,0.411915339 C29.4043319,0.448444986 28.9537996,0.984213135 29.0025058,1.59304058 L29.0025058,1.59304058 Z" id="Shape-Copy-7" transform="translate(30.099349, 1.505048) rotate(151.000000) translate(-30.099349, -1.505048) "></path>
                <path d="M58.8906402,2.29376758 C59.0976415,2.08676625 59.219407,1.80670563 59.219407,1.51446846 C59.219407,1.22223129 59.0976415,0.942170662 58.8906402,0.735169332 C58.6836389,0.528168001 58.4035782,0.406402513 58.1113411,0.406402513 C57.8191039,0.406402513 57.5390433,0.528168001 57.3320419,0.735169332 C57.1250406,0.942170662 57.0032751,1.22223129 57.0032751,1.51446846 C57.0032751,1.80670563 57.1250406,2.08676625 57.3320419,2.29376758 C57.5390433,2.51294546 57.8191039,2.6225344 58.1113411,2.6225344 C58.4035782,2.6225344 58.6836389,2.50076891 58.8906402,2.29376758 Z" id="Shape-Copy" transform="translate(58.111341, 1.514468) rotate(-370.000000) translate(-58.111341, -1.514468) "></path>
            </g>
        </g>
    </g>
</svg>