<?xml version="1.0" encoding="UTF-8"?>
<svg width="54px" height="54px" viewBox="0 0 54 54" version="1.1" xmlns="http://www.w3.org/2000/svg" xmlns:xlink="http://www.w3.org/1999/xlink">
    <!-- Generator: Sketch 39 (31667) - http://www.bohemiancoding.com/sketch -->
    <title>Combined Shape</title>
    <desc>Created with Sketch.</desc>
    <defs></defs>
    <g id="Page-1" stroke="none" stroke-width="1" fill="none" fill-rule="evenodd" fill-opacity="0.521456069" opacity="0.472543025">
        <g id="Desktop-Copy" transform="translate(-1281.000000, -246.000000)" fill="#D8D8D8">
            <g id="Group-Copy" transform="translate(1240.000000, 201.000000)">
                <path d="M75.1052632,64.8947368 L75.1052632,48.6059 C75.1052632,46.6161127 73.4915692,45 71.5009769,45 L64.4990231,45 C62.4972415,45 60.8947368,46.6144164 60.8947368,48.6059 L60.8947368,64.8947368 L42.4166124,64.8947368 C41.6345583,64.8947368 41,65.5280356 41,66.3092492 L41,77.6907508 C41,78.4670596 41.634239,79.1052632 42.4166124,79.1052632 L60.8947368,79.1052632 L60.8947368,95.3941 C60.8947368,97.3838873 62.5084308,99 64.4990231,99 L71.5009769,99 C73.5027585,99 75.1052632,97.3855836 75.1052632,95.3941 L75.1052632,79.1052632 L93.5833876,79.1052632 C94.3654417,79.1052632 95,78.4719644 95,77.6907508 L95,66.3092492 C95,65.5329404 94.365761,64.8947368 93.5833876,64.8947368 L75.1052632,64.8947368 Z" id="Combined-Shape"></path>
            </g>
        </g>
    </g>
</svg>