<?xml version="1.0" encoding="UTF-8"?>
<svg width="60px" height="65px" viewBox="0 0 60 65" version="1.1" xmlns="http://www.w3.org/2000/svg" xmlns:xlink="http://www.w3.org/1999/xlink">
    <!-- Generator: Sketch 39 (31667) - http://www.bohemiancoding.com/sketch -->
    <title>search</title>
    <desc>Created with Sketch.</desc>
    <defs></defs>
    <g id="Page-1" stroke="none" stroke-width="1" fill="none" fill-rule="evenodd">
        <g id="search" transform="translate(30.000000, 32.500000) rotate(-90.000000) translate(-30.000000, -32.500000) translate(-2.500000, 2.500000)">
            <g id="Group">
                <polygon id="XMLID_1304_" fill="#778287" points="64.3074152 12.5540218 36.1552343 1.0958894 39.9664941 12.5540218 36.1430578 23.9999778"></polygon>
                <path d="M64.4106337,12.5472571 C64.4106337,12.4741978 64.3984572,12.4133151 64.3862806,12.3524323 C64.3862806,12.3280792 64.3741041,12.3159027 64.3741041,12.2915496 C64.3619275,12.2428434 64.349751,12.2063137 64.3375744,12.1576075 C64.3253979,12.1332544 64.3253979,12.1210779 64.3132213,12.0967248 C64.2888682,12.035842 64.2645152,11.9871359 64.2279855,11.9262531 C64.2279855,11.9262531 64.2279855,11.9262531 64.215809,11.9140766 C64.1792793,11.8653704 64.1427497,11.8166642 64.10622,11.7801345 C64.0940435,11.767958 64.0818669,11.7557814 64.0696904,11.7436049 C64.0331607,11.7070752 63.9966311,11.6827221 63.9601014,11.658369 C63.9479249,11.6461925 63.9235718,11.6340159 63.9113952,11.6218394 C63.8748656,11.5974863 63.8261594,11.5731332 63.7774532,11.5487801 C63.7652766,11.5366035 63.7531001,11.5366035 63.7409236,11.524427 L63.7409236,11.524427 L35.5887426,0.0784710925 C35.1869165,-0.0798240424 34.7363842,0.00541179948 34.419794,0.297648972 C34.1032037,0.589886144 33.9936147,1.04041845 34.1275568,1.45442111 L37.8170511,12.5594336 L34.1032037,23.6644462 C33.9692616,24.0784488 34.0788506,24.5289812 34.3954409,24.8212183 C34.6024422,25.0160431 34.8703263,25.125632 35.1503869,25.125632 C35.2843289,25.125632 35.4304475,25.1012789 35.5643895,25.0403962 L63.7409236,13.5944403 L63.7531001,13.5944403 C63.7652766,13.5944403 63.7774532,13.5822638 63.7896297,13.5700872 C63.8383359,13.5457341 63.8870421,13.521381 63.9235718,13.4970279 C63.9357483,13.4848514 63.9601014,13.4726748 63.972278,13.4604983 C64.0088076,13.4361452 64.0453373,13.3996155 64.0818669,13.3752624 C64.0940435,13.3630859 64.10622,13.3509093 64.1183966,13.3387328 C64.1671028,13.2900266 64.2036324,13.2413204 64.2401621,13.1926142 L64.2401621,13.1926142 C64.2766917,13.143908 64.3010448,13.0830252 64.3253979,13.0221425 C64.3375744,12.9977894 64.3375744,12.9856129 64.349751,12.9612598 C64.3619275,12.9125536 64.3741041,12.8760239 64.3862806,12.8273177 C64.3862806,12.8029646 64.3984572,12.7907881 64.3984572,12.766435 C64.3984572,12.6811991 64.4106337,12.6081398 64.4106337,12.5472571 L64.4106337,12.5472571 L64.4106337,12.5472571 L64.4106337,12.5472571 L64.4106337,12.5472571 Z M36.9525161,3.01301936 L57.6648257,11.4391912 L39.7531223,11.4391912 L36.9525161,3.01301936 L36.9525161,3.01301936 Z M39.7531223,13.6431465 L57.6526491,13.6431465 L36.9403396,22.0693183 L39.7531223,13.6431465 L39.7531223,13.6431465 Z" id="Shape" fill="#000000"></path>
                <path d="M29.1080659,59.2161319 C29.4003031,59.2161319 29.6803637,59.0943664 29.8873651,58.8873651 C30.0943664,58.6803637 30.2161319,58.4003031 30.2161319,58.1080659 C30.2161319,57.8158288 30.0943664,57.5357681 29.8873651,57.3287668 C29.6803637,57.1217655 29.4003031,57 29.1080659,57 C28.8158288,57 28.5357681,57.1217655 28.3287668,57.3287668 C28.1217655,57.5357681 28,57.8158288 28,58.1080659 C28,58.4003031 28.1217655,58.6803637 28.3287668,58.8873651 C28.5357681,59.1065429 28.8158288,59.2161319 29.1080659,59.2161319 L29.1080659,59.2161319 Z" id="Shape" fill="#000000"></path>
                <path d="M1.88736507,58.8873651 C2.0943664,58.6803637 2.21613189,58.4003031 2.21613189,58.1080659 C2.21613189,57.8158288 2.0943664,57.5357681 1.88736507,57.3287668 C1.68036374,57.1217655 1.40030312,57 1.10806594,57 C0.815828772,57 0.535768149,57.1217655 0.328766819,57.3287668 C0.121765488,57.5357681 0,57.8158288 0,58.1080659 C0,58.4003031 0.121765488,58.6803637 0.328766819,58.8873651 C0.535768149,59.1065429 0.815828772,59.2161319 1.10806594,59.2161319 C1.40030312,59.2161319 1.68036374,59.0943664 1.88736507,58.8873651 Z" id="Shape-Copy" fill="#000000"></path>
                <path d="M59.7490798,56.265049 C60.0291404,56.265049 60.2970244,56.1676366 60.5162023,55.9606352 C60.9545581,55.534456 60.9667346,54.8403927 60.5405554,54.402037 C60.1143762,53.9636812 59.4203129,53.9515047 58.9819572,54.3655073 C58.5436014,54.7916865 58.5314249,55.4857498 58.9454275,55.9241056 C59.1646054,56.1432835 59.4568426,56.265049 59.7490798,56.265049 L59.7490798,56.265049 Z" id="Shape" fill="#000000"></path>
                <path d="M61.5662948,53.1142321 C61.72459,53.1994679 61.8950616,53.2359976 62.0655333,53.2359976 C62.4673594,53.2359976 62.857009,53.0168197 63.0518338,52.6271702 C63.3318944,52.0792255 63.1127165,51.4216918 62.5647718,51.1416312 C62.0168271,50.8615706 61.3592935,51.0807484 61.0792329,51.6286931 C60.7991722,52.1766378 61.0183501,52.8341715 61.5662948,53.1142321 L61.5662948,53.1142321 Z" id="Shape" fill="#000000"></path>
                <path d="M62.2767214,41.8551112 C62.800313,41.5385209 62.9586081,40.8566342 62.6420179,40.3452191 C62.3254276,39.8216275 61.6435409,39.6633324 61.1199493,39.9799226 C60.5963577,40.2965129 60.4380625,40.9783997 60.7546528,41.5019913 C60.9616541,41.8429346 61.3269506,42.0255829 61.692247,42.0255829 C61.8992484,42.0134063 62.0940732,41.9647001 62.2767214,41.8551112 L62.2767214,41.8551112 Z" id="Shape" fill="#000000"></path>
                <path d="M61.9542753,44.7959802 C62.0638643,45.3195718 62.5265731,45.6726917 63.0258116,45.6726917 C63.0988709,45.6726917 63.1841067,45.6605151 63.257166,45.6483386 C63.8538169,45.5265731 64.2312899,44.9420988 64.1095245,44.3454479 C63.987759,43.748797 63.4032846,43.371324 62.8066337,43.4930895 C62.2099828,43.6148549 61.8325098,44.1993293 61.9542753,44.7959802 L61.9542753,44.7959802 Z" id="Shape" fill="#000000"></path>
                <path d="M60.0027021,38.7043804 C60.3923517,38.229495 60.3192924,37.5354317 59.844407,37.1457821 C59.3695216,36.7561326 58.6754583,36.8291919 58.2858087,37.3040773 C57.8961592,37.7789627 57.9692185,38.473026 58.4441039,38.8626755 C58.6511052,39.0331472 58.8946362,39.1062065 59.1381672,39.1062065 C59.466934,39.1062065 59.7835243,38.9722645 60.0027021,38.7043804 L60.0027021,38.7043804 Z" id="Shape" fill="#000000"></path>
                <path d="M17.0111115,25.8619247 C17.0963474,26.4098694 17.5712328,26.8116955 18.1070009,26.8116955 C18.1557071,26.8116955 18.2165899,26.8116955 18.2652961,26.799519 C18.8741235,26.7142831 19.2881262,26.1541619 19.2028903,25.5453344 C19.1176545,24.936507 18.5575332,24.5225043 17.9487058,24.6077402 C17.3398783,24.692976 16.9258757,25.2530973 17.0111115,25.8619247 L17.0111115,25.8619247 Z" id="Shape" fill="#000000"></path>
                <path d="M20.1217095,17.1978 C19.5981179,16.8933862 18.9162312,17.0638579 18.6118174,17.5874495 C18.3074037,18.1110411 18.4778754,18.7929278 19.001467,19.0973416 C19.1719387,19.194754 19.3667635,19.2434602 19.5615882,19.2434602 C19.9390613,19.2434602 20.3043577,19.0486354 20.5113591,18.6955155 C20.8279493,18.1841004 20.6574776,17.5022137 20.1217095,17.1978 L20.1217095,17.1978 Z" id="Shape" fill="#000000"></path>
                <path d="M21.6415748,33.4999956 C21.933812,33.4999956 22.2382257,33.3782301 22.445227,33.1468756 C22.8592297,32.6963433 22.8348766,32.0022801 22.3843443,31.5882774 C21.933812,31.1742747 21.2397487,31.1986278 20.8257461,31.6491601 C20.4117434,32.0996924 20.4360965,32.7937557 20.8866288,33.2077584 C21.1058067,33.4025832 21.3736907,33.4999956 21.6415748,33.4999956 L21.6415748,33.4999956 Z" id="Shape" fill="#000000"></path>
                <path d="M25.3600236,33.4558907 C24.7999023,33.2123597 24.1545452,33.4680673 23.9110143,34.0281885 C23.6674833,34.5883098 23.9231908,35.2336669 24.4833121,35.4771978 C24.6294306,35.5380806 24.7755492,35.5624337 24.9216678,35.5624337 C25.347847,35.5624337 25.7496731,35.3189027 25.9323214,34.8927235 C26.1758523,34.3447788 25.9201448,33.6994217 25.3600236,33.4558907 L25.3600236,33.4558907 Z" id="Shape" fill="#000000"></path>
                <path d="M22.8437859,14.5134887 C22.4541363,14.0507798 21.7478965,13.9898971 21.2851877,14.3917232 C20.8224788,14.7813728 20.7615961,15.4876126 21.1634222,15.9503214 C21.3826,16.206029 21.6991903,16.339971 22.003604,16.339971 C22.2593116,16.339971 22.5028425,16.2547352 22.7220204,16.0720869 C23.1725527,15.6702608 23.2334355,14.9761975 22.8437859,14.5134887 L22.8437859,14.5134887 Z" id="Shape" fill="#000000"></path>
                <path d="M17.8951599,22.8860071 C17.9682192,22.8981836 18.0412785,22.9103602 18.1021612,22.9103602 C18.6135763,22.9103602 19.0884617,22.5450637 19.1858741,22.0092956 C19.295463,21.4126447 18.9058134,20.8281703 18.3091626,20.7185814 C17.7125117,20.6089925 17.1280373,20.998642 17.0184484,21.5952929 L17.0184484,21.5952929 C16.9088594,22.1919438 17.298509,22.7764182 17.8951599,22.8860071 L17.8951599,22.8860071 Z" id="Shape" fill="#000000"></path>
                <path d="M19.3166079,30.4444357 C19.4870796,30.4444357 19.6697278,30.4079061 19.828023,30.3226702 C20.3637911,30.0426096 20.5707924,29.3728994 20.2907318,28.8371313 C20.0106712,28.3013631 19.340961,28.0943618 18.8051929,28.3744224 C18.2694247,28.654483 18.0624234,29.3241932 18.342484,29.8599614 C18.5373088,30.2252578 18.9147818,30.4444357 19.3166079,30.4444357 L19.3166079,30.4444357 Z" id="Shape" fill="#000000"></path>
                <path d="M64.3749274,48.4829933 C64.4479867,47.8741659 64.0218074,47.3262212 63.41298,47.2531619 C62.8041526,47.1801026 62.2562079,47.6062818 62.1831486,48.2029327 C62.1100893,48.8117601 62.5362685,49.3597048 63.1329194,49.4327641 C63.1816256,49.4449407 63.2303318,49.4449407 63.279038,49.4449407 C63.8269827,49.4449407 64.3018681,49.0431146 64.3749274,48.4829933 L64.3749274,48.4829933 Z" id="Shape" fill="#000000"></path>
                <path d="M36.3728892,34.3378677 C35.7640618,34.3378677 35.2648233,34.8249297 35.2648233,35.4459337 C35.2648233,36.0547611 35.7640618,36.5539996 36.3728892,36.5539996 C36.9817166,36.5539996 37.4809551,36.0547611 37.4809551,35.4459337 C37.4687786,34.8249297 36.9817166,34.3378677 36.3728892,34.3378677 L36.3728892,34.3378677 Z" id="Shape" fill="#000000"></path>
                <path d="M48,58.1080659 C48,58.7168934 48.487062,59.2161319 49.1080659,59.2161319 C49.7168934,59.2161319 50.2161319,58.7168934 50.2161319,58.1080659 C50.2161319,57.4992385 49.7168934,57 49.1080659,57 C48.4992385,57 48,57.4992385 48,58.1080659 L48,58.1080659 Z" id="Shape" fill="#000000"></path>
                <path d="M20,58.1080659 C20,58.7168934 20.487062,59.2161319 21.1080659,59.2161319 C21.7168934,59.2161319 22.2161319,58.7168934 22.2161319,58.1080659 C22.2161319,57.4992385 21.7168934,57 21.1080659,57 C20.4992385,57 20,57.4992385 20,58.1080659 L20,58.1080659 Z" id="Shape-Copy-2" fill="#000000"></path>
                <path d="M36,58.1080659 C36,58.7168934 36.487062,59.2161319 37.1080659,59.2161319 C37.7168934,59.2161319 38.2161319,58.7168934 38.2161319,58.1080659 C38.2161319,57.4992385 37.7168934,57 37.1080659,57 C36.4992385,57 36,57.4992385 36,58.1080659 L36,58.1080659 Z" id="Shape" fill="#000000"></path>
                <path d="M8,58.1080659 C8,58.7168934 8.48706195,59.2161319 9.10806594,59.2161319 C9.71689339,59.2161319 10.2161319,58.7168934 10.2161319,58.1080659 C10.2161319,57.4992385 9.71689339,57 9.10806594,57 C8.4992385,57 8,57.4992385 8,58.1080659 L8,58.1080659 Z" id="Shape-Copy-3" fill="#000000"></path>
                <path d="M48.0623761,34.3378677 C47.4535486,34.3378677 46.9543101,34.8249297 46.9543101,35.4459337 C46.9543101,36.0547611 47.4535486,36.5539996 48.0623761,36.5539996 C48.6712035,36.5539996 49.170442,36.0547611 49.170442,35.4459337 C49.170442,34.8249297 48.6833801,34.3378677 48.0623761,34.3378677 L48.0623761,34.3378677 Z" id="Shape" fill="#000000"></path>
                <path d="M40.2693848,34.3378677 C39.6605574,34.3378677 39.1613189,34.8249297 39.1613189,35.4459337 C39.1613189,36.0547611 39.6483808,36.5539996 40.2693848,36.5539996 C40.8782123,36.5539996 41.3774508,36.0547611 41.3774508,35.4459337 C41.3652742,34.8249297 40.8782123,34.3378677 40.2693848,34.3378677 L40.2693848,34.3378677 Z" id="Shape" fill="#000000"></path>
                <path d="M32,58.1080659 C32,58.7168934 32.487062,59.2161319 33.1080659,59.2161319 C33.7168934,59.2161319 34.2161319,58.7168934 34.2161319,58.1080659 C34.2161319,57.4992385 33.7168934,57 33.1080659,57 C32.487062,57 32,57.4992385 32,58.1080659 L32,58.1080659 Z" id="Shape" fill="#000000"></path>
                <path d="M4,58.1080659 C4,58.7168934 4.48706195,59.2161319 5.10806594,59.2161319 C5.71689339,59.2161319 6.21613189,58.7168934 6.21613189,58.1080659 C6.21613189,57.4992385 5.71689339,57 5.10806594,57 C4.48706195,57 4,57.4992385 4,58.1080659 L4,58.1080659 Z" id="Shape-Copy-4" fill="#000000"></path>
                <path d="M40,58.1080659 C40,58.7168934 40.4992385,59.2161319 41.1080659,59.2161319 C41.7168934,59.2161319 42.2161319,58.7168934 42.2161319,58.1080659 C42.2161319,57.4992385 41.7290699,57 41.1080659,57 C40.4992385,57 40,57.4992385 40,58.1080659 L40,58.1080659 Z" id="Shape" fill="#000000"></path>
                <path d="M13.1080659,59.2161319 C13.7168934,59.2161319 14.2161319,58.7168934 14.2161319,58.1080659 C14.2161319,57.4992385 13.7290699,57 13.1080659,57 C12.4992385,57 12,57.4992385 12,58.1080659 C12,58.7168934 12.4992385,59.2161319 13.1080659,59.2161319 Z" id="Shape-Copy-5" fill="#000000"></path>
                <path d="M45.1080659,59.2161319 C45.7168934,59.2161319 46.2039553,58.7168934 46.2039553,58.1080659 C46.2039553,57.4992385 45.7168934,57 45.1080659,57 C44.4992385,57 44,57.4992385 44,58.1080659 C44,58.7168934 44.487062,59.2161319 45.1080659,59.2161319 Z" id="Shape" fill="#000000"></path>
                <path d="M16,58.1080659 C16,58.7168934 16.487062,59.2161319 17.1080659,59.2161319 C17.7168934,59.2161319 18.2039553,58.7168934 18.2039553,58.1080659 C18.2039553,57.4992385 17.7168934,57 17.1080659,57 C16.4992385,57 16,57.4992385 16,58.1080659 L16,58.1080659 Z" id="Shape-Copy-6" fill="#000000"></path>
                <path d="M44.1658805,34.3378677 C43.557053,34.3378677 43.0578145,34.8249297 43.0578145,35.4459337 C43.0578145,36.0547611 43.5448765,36.5539996 44.1658805,36.5539996 C44.7747079,36.5539996 45.2739464,36.0547611 45.2739464,35.4459337 C45.2617698,34.8249297 44.7747079,34.3378677 44.1658805,34.3378677 L44.1658805,34.3378677 Z" id="Shape" fill="#000000"></path>
                <path d="M31.3683276,35.4459337 C31.3683276,36.0547611 31.8675661,36.5539996 32.4763936,36.5539996 C33.085221,36.5539996 33.5844595,36.0547611 33.5844595,35.4459337 C33.5844595,34.8371062 33.0973976,34.3378677 32.4763936,34.3378677 C31.8675661,34.3500443 31.3683276,34.8371062 31.3683276,35.4459337 L31.3683276,35.4459337 Z" id="Shape" fill="#000000"></path>
                <path d="M30.2848438,12.5183673 C30.2726672,11.9095398 29.7612522,11.4224779 29.1524247,11.446831 C28.5435973,11.4590075 28.0687119,11.9704226 28.0808884,12.57925 C28.093065,13.1880775 28.60448,13.6629629 29.2133075,13.6507863 C29.8221349,13.6264332 30.3091969,13.1271947 30.2848438,12.5183673 L30.2848438,12.5183673 Z" id="Shape" fill="#000000"></path>
                <path d="M27.59567,35.3642173 C27.5591403,35.9730448 28.0096726,36.4966364 28.6185001,36.5453426 L28.6915593,36.5453426 C29.2638571,36.5453426 29.7509191,36.1069868 29.7874487,35.5225125 C29.8239784,34.913685 29.3734461,34.3900934 28.7646186,34.3413872 C28.1557912,34.292681 27.6321996,34.7553899 27.59567,35.3642173 L27.59567,35.3642173 Z" id="Shape" fill="#000000"></path>
                <path d="M26.3165231,12.8842519 C26.0973452,12.3119541 25.4641647,12.0318935 24.8918669,12.2510714 C24.3195691,12.4702493 24.0395085,13.1034298 24.2586864,13.6757276 C24.429158,14.1140834 24.8431607,14.3819674 25.293693,14.3819674 C25.4276351,14.3819674 25.5615771,14.3576143 25.6833426,14.3089081 C26.2556404,14.0897303 26.535701,13.4565497 26.3165231,12.8842519 L26.3165231,12.8842519 Z" id="Shape" fill="#000000"></path>
                <path d="M56.7740729,36.5474126 C56.9810742,35.9751148 56.6888371,35.3419343 56.1043627,35.1349329 L56.1043627,35.1349329 C55.5320649,34.9279316 54.8988844,35.2201688 54.6918831,35.7924666 C54.4848817,36.3647644 54.7771189,36.9979449 55.3615932,37.2049462 C55.4833587,37.2536524 55.6173008,37.265829 55.7390663,37.265829 C56.1895986,37.2780055 56.6157778,36.9979449 56.7740729,36.5474126 L56.7740729,36.5474126 Z" id="Shape" fill="#000000"></path>
                <path d="M51.9588717,34.3378677 C51.3500443,34.3378677 50.8508058,34.8249297 50.8508058,35.4337571 C50.8508058,36.0425846 51.3378677,36.5418231 51.9466952,36.5418231 L51.9588717,36.5418231 C52.5676991,36.5418231 53.0547611,36.0547611 53.0669377,35.4459337 C53.0547611,34.8371062 52.5676991,34.3378677 51.9588717,34.3378677 L51.9588717,34.3378677 Z" id="Shape" fill="#000000"></path>
                <path d="M56.5779066,58.4637338 C56.7362017,58.4637338 56.8823203,58.4272042 57.0406154,58.3663214 C57.6007367,58.1106139 57.8442676,57.4530803 57.5885601,56.9051356 C57.3328526,56.3450143 56.6874955,56.1014833 56.1273743,56.3571909 C55.567253,56.6128984 55.323722,57.270432 55.5794296,57.8183767 C55.7620778,58.2202028 56.1639039,58.4637338 56.5779066,58.4637338 L56.5779066,58.4637338 Z" id="Shape" fill="#000000"></path>
                <path d="M52.003606,58.1866381 C52.0523122,58.7589359 52.5393741,59.1972916 53.0994954,59.1972916 L53.1969077,59.1972916 C53.8057352,59.1485854 54.2562675,58.6128173 54.1953847,58.0039898 C54.1466786,57.3951624 53.6109104,56.9446301 53.002083,57.0055128 L53.002083,57.0055128 C52.4054321,57.0420425 51.9548998,57.5778106 52.003606,58.1866381 L52.003606,58.1866381 Z" id="Shape" fill="#000000"></path>
                <path d="M24.003606,58.1866381 C24.0523122,58.7589359 24.5393741,59.1972916 25.0994954,59.1972916 L25.1969077,59.1972916 C25.8057352,59.1485854 26.2562675,58.6128173 26.1953847,58.0039898 C26.1466786,57.3951624 25.6109104,56.9446301 25.002083,57.0055128 L25.002083,57.0055128 C24.4054321,57.0420425 23.9548998,57.5778106 24.003606,58.1866381 L24.003606,58.1866381 Z" id="Shape-Copy-7" fill="#000000"></path>
                <path d="M33.8645201,13.333321 C34.0715215,13.1263196 34.1811104,12.846259 34.1811104,12.5540218 C34.1811104,12.2617847 34.0593449,11.9817241 33.8645201,11.7747227 C33.6575188,11.5677214 33.3774582,11.4459559 33.085221,11.4459559 C32.7929838,11.4459559 32.5129232,11.5677214 32.3059219,11.7747227 C32.0989206,11.9817241 31.9771551,12.2617847 31.9771551,12.5540218 C31.9771551,12.846259 32.0989206,13.1263196 32.3059219,13.333321 C32.5129232,13.5403223 32.7929838,13.6620878 33.085221,13.6620878 C33.3774582,13.6499112 33.6575188,13.5403223 33.8645201,13.333321 L33.8645201,13.333321 Z" id="Shape" fill="#000000"></path>
            </g>
        </g>
    </g>
</svg>